<svg width="52" height="57" viewBox="0 0 52 57" fill="none" xmlns="http://www.w3.org/2000/svg">
<g clip-path="url(#clip0_59_2)">
<path d="M35.4283 0.919678V10.9365H44.5665L35.4283 0.919678Z" fill="#5DD9C2"/>
<path d="M23.7028 8.34361L22.1237 7.73582C22.0147 7.69535 21.8952 7.69454 21.7845 7.74116C21.443 7.88299 20.99 8.06795 20.705 8.16757C20.4904 8.24295 20.2685 8.28075 20.0433 8.28075H18.6124C18.5352 8.30128 18.3956 8.353 18.256 8.47418C18.2424 8.48601 18.2302 8.50735 18.2166 8.52069C18.1608 8.57496 18.1044 8.6326 18.0543 8.71342C17.9918 8.81455 17.9366 8.93794 17.8974 9.08962V11.5918V12.196C17.8974 12.196 17.9655 14.2583 19.1089 15.0879C19.1219 15.0976 19.1313 15.1054 19.1439 15.1148C19.145 15.1155 19.1462 15.1158 19.1473 15.1166C19.1556 15.1228 19.1635 15.1299 19.1717 15.1361C19.2977 15.2316 19.4035 15.3154 19.5019 15.4003C20.2154 16.0143 20.7583 16.2362 20.8902 16.2317C20.941 16.2307 20.9836 16.2326 21.0295 16.2407C21.0753 16.2447 21.5872 16.2897 22.1938 15.8271C22.2807 15.7606 22.3696 15.6843 22.4595 15.5952C22.6528 15.4039 22.8575 15.2298 23.0705 15.0682C23.0769 15.0638 23.1375 15.017 23.1442 15.0125C23.4393 14.7946 24.1642 14.055 24.3327 12.069V9.08614C24.308 8.97017 24.1876 8.53936 23.7028 8.34361Z" fill="#5DD9C2"/>
<path d="M19.306 18.7289L18.5888 18.2037L19.4371 19.8948L19.6082 19.638L19.6115 19.6335L19.7077 19.4903L19.9176 19.1772L19.306 18.7289Z" fill="#5DD9C2"/>
<path d="M24.4513 6.12514C24.2064 6.06043 24 5.87825 23.8911 5.6295C23.7821 5.37994 23.7805 5.09083 23.8878 4.84034C23.8903 4.83327 23.8936 4.81251 23.8968 4.79187C23.8788 4.79013 23.8452 4.77842 23.7928 4.76404H19.297C18.0971 4.76404 17.1184 5.82432 17.1003 7.1351C17.1189 7.11712 17.1387 7.10541 17.1575 7.08824C17.2228 7.02864 17.2885 6.9768 17.3554 6.92647C17.4007 6.89249 17.4446 6.85643 17.4901 6.82662C17.5627 6.77861 17.6339 6.73953 17.7059 6.70138C17.7457 6.68027 17.7852 6.6558 17.8242 6.6376C17.9039 6.60049 17.9795 6.57254 18.055 6.54645C18.0838 6.53647 18.1141 6.52244 18.1421 6.51386C18.2433 6.48336 18.3389 6.46121 18.4246 6.44904C18.4598 6.44463 18.4959 6.44185 18.532 6.44185H20.0431C20.0948 6.44185 20.1456 6.43292 20.1946 6.41587C20.4559 6.32426 20.8728 6.15367 21.189 6.02181C21.3114 5.9709 21.4371 5.93333 21.5643 5.90759C21.5964 5.90109 21.6291 5.90167 21.6614 5.8968C21.7573 5.88219 21.8533 5.86897 21.9498 5.86851C21.9535 5.86851 21.9569 5.86746 21.9605 5.86746C22.0285 5.86746 22.0958 5.87917 22.1635 5.88613C22.2148 5.89135 22.2663 5.89089 22.3173 5.90016C22.4396 5.92243 22.5605 5.9556 22.6788 6.00129L24.2694 6.61359C24.4356 6.68051 24.5849 6.76122 24.7232 6.84947C24.7748 6.88252 24.818 6.92044 24.8659 6.95558C24.9465 7.0153 25.0266 7.07456 25.0973 7.13962C25.1103 7.15168 25.1273 7.16154 25.1401 7.17371V6.93668C25.1098 6.78499 24.9682 6.26071 24.4513 6.12514Z" fill="#5DD9C2"/>
<path d="M29.595 21.2325C29.5254 20.7747 29.2355 20.3921 28.8366 20.2341L25.2466 18.8101L23.6249 22.0433C23.4874 22.3189 23.231 22.4977 22.9451 22.5182C22.9264 22.5191 22.9083 22.5201 22.8903 22.5201C22.6241 22.5201 22.3726 22.3817 22.2145 22.1448L21.1128 20.5004L21.0031 20.6633C21.0025 20.6647 21.0013 20.6662 21.0005 20.6676L21.0007 20.6678L20.9612 20.7261L20.9614 20.7262L20.0122 22.1448C19.8532 22.3818 19.6018 22.5201 19.3356 22.5201C19.3176 22.5201 19.2995 22.5191 19.2808 22.5182C18.9958 22.4977 18.7385 22.3189 18.601 22.0433L16.9786 18.8101L13.3885 20.2341C12.9905 20.3921 12.6998 20.7747 12.63 21.2325L12.1893 24.1503L12.2573 24.2374H29.9686L30.0357 24.1503L29.595 21.2325Z" fill="#5DD9C2"/>
<path d="M34.5894 12.7751C34.1258 12.7751 33.7507 12.3639 33.7507 11.8559V0H6.59468V57H45.4052V12.7751H34.5894ZM10.5347 23.8496L10.9754 20.9326C11.1433 19.8193 11.8494 18.8891 12.8182 18.5049L17.0823 16.8134C17.0823 16.8134 17.0832 16.8134 17.0838 16.8132C17.0838 16.8132 17.0844 16.8127 17.0847 16.8126L17.8391 16.5166V16.3307C16.2931 14.8638 16.2222 12.3311 16.2198 12.2158V11.6345C16.2023 11.3374 16.1233 11.0886 15.9823 10.8969C15.6211 10.404 15.4229 9.7818 15.4229 9.14433V7.17104C15.4229 4.82955 17.1609 2.92526 19.297 2.92526H23.8828C23.9369 2.92526 23.9901 2.93071 24.0425 2.94231C24.8632 3.11649 25.2367 3.58871 25.4063 3.95331C25.5185 4.19661 25.5659 4.43898 25.5758 4.66256C26.4071 5.20934 26.7437 6.16642 26.8109 6.74266C26.8149 6.78127 26.8175 6.81989 26.8175 6.85851V9.54291C26.8175 9.95679 26.7109 10.3635 26.5087 10.719C26.1262 11.3906 26.0017 12.2498 26.0008 12.2587C25.9987 12.2743 25.9904 12.2864 25.9875 12.3015C25.7711 14.5319 24.9948 15.694 24.3865 16.2737V16.5166L25.1401 16.8124L25.1409 16.813C25.1415 16.8132 25.1419 16.813 25.1425 16.8132L29.4066 18.5047C30.3754 18.8881 31.0815 19.8181 31.2494 20.9324L31.69 23.8502C31.7745 24.4051 31.632 24.9707 31.3002 25.3997C30.9677 25.8299 30.4828 26.0758 29.9684 26.0758H12.2572C11.7428 26.0758 11.2571 25.8289 10.9246 25.3997C10.5929 24.9701 10.4504 24.4053 10.5347 23.8496ZM35.2693 51.8926H11.3497C10.8861 51.8926 10.511 51.4814 10.511 50.9732C10.511 50.4652 10.8861 50.0539 11.3497 50.0539H35.2693C35.7329 50.0539 36.1079 50.4652 36.1079 50.9732C36.108 51.4814 35.733 51.8926 35.2693 51.8926ZM40.6505 46.9879H11.3497C10.8861 46.9879 10.511 46.5767 10.511 46.0686C10.511 45.5605 10.8861 45.1492 11.3497 45.1492H40.6505C41.114 45.1492 41.4891 45.5605 41.4891 46.0686C41.4891 46.5767 41.114 46.9879 40.6505 46.9879ZM40.6505 42.0823H11.3497C10.8861 42.0823 10.511 41.671 10.511 41.1629C10.511 40.6548 10.8861 40.2436 11.3497 40.2436H40.6505C41.114 40.2436 41.4891 40.6548 41.4891 41.1629C41.4891 41.671 41.114 42.0823 40.6505 42.0823ZM40.6505 37.1776H11.3497C10.8861 37.1776 10.511 36.7663 10.511 36.2583C10.511 35.7501 10.8861 35.3389 11.3497 35.3389H40.6505C41.114 35.3389 41.4891 35.7501 41.4891 36.2583C41.4891 36.7663 41.114 37.1776 40.6505 37.1776ZM40.6505 32.2729H11.3497C10.8861 32.2729 10.511 31.8616 10.511 31.3535C10.511 30.8453 10.8861 30.4341 11.3497 30.4341H40.6505C41.114 30.4341 41.4891 30.8453 41.4891 31.3535C41.4891 31.8616 41.114 32.2729 40.6505 32.2729Z" fill="#5DD9C2"/>
<path d="M22.3079 19.1774L22.7886 19.8957L23.6363 18.2042L22.3079 19.1774Z" fill="#5DD9C2"/>
</g>
<defs>
<clipPath id="clip0_59_2">
<rect width="52" height="57" fill="white"/>
</clipPath>
</defs>
</svg>
