<svg width="50" height="50" viewBox="0 0 50 50" fill="none" xmlns="http://www.w3.org/2000/svg">
<path d="M37.2448 41.3785H12.7224C11.9566 41.3785 11.3308 41.9961 11.3308 42.7701C11.3308 43.5359 11.9484 44.1617 12.7224 44.1617H37.253C38.0188 44.1617 38.6446 43.5441 38.6446 42.7701C38.6364 41.9961 38.0188 41.3785 37.2448 41.3785Z" fill="#5DD9C2"/>
<path d="M37.2448 35.2849H12.7224C11.9566 35.2849 11.3308 35.9024 11.3308 36.6765C11.3308 37.4423 11.9484 38.0681 12.7224 38.0681H37.253C38.0188 38.0681 38.6446 37.4505 38.6446 36.6765C38.6364 35.9026 38.0188 35.2849 37.2448 35.2849Z" fill="#5DD9C2"/>
<path d="M24.9835 5.83826C21.6896 5.83826 18.997 8.52274 18.997 11.8248C18.997 15.1186 21.6896 17.803 24.9835 17.803C28.2774 17.803 30.97 15.1185 30.97 11.8165C30.97 8.51446 28.2774 5.83826 24.9835 5.83826ZM24.9835 15.0116C23.2295 15.0116 21.7885 13.5706 21.7885 11.8166C21.7885 10.0626 23.2212 8.62159 24.9835 8.62159C26.7458 8.62159 28.1785 10.0626 28.1785 11.8166C28.1785 13.5705 26.7375 15.0116 24.9835 15.0116Z" fill="#5DD9C2"/>
<path d="M32.9298 20.8087C27.8491 18.8325 22.1343 18.8325 17.0537 20.8087C15.3903 21.4593 14.2787 23.1144 14.2787 24.9343V30.5831C14.2704 31.3489 14.8963 31.9747 15.6621 31.9747H34.3133C35.0791 31.9747 35.7049 31.3572 35.7049 30.5831V24.9343C35.7049 23.1144 34.5933 21.4593 32.9298 20.8087ZM32.9298 29.1996H17.0537V24.9424C17.0537 24.2672 17.4573 23.6414 18.0584 23.4108C22.4967 21.6898 27.4869 21.6898 31.9253 23.4108C32.5264 23.6496 32.93 24.259 32.93 24.9424V29.1996H32.9298Z" fill="#5DD9C2"/>
<path d="M39.8798 0H16.749C15.6786 0 14.6739 0.411685 13.9164 1.16933L7.26283 7.82278C6.50531 8.58043 6.0935 9.58493 6.0935 10.6554V45.9815C6.0935 48.1966 7.89691 49.9999 10.1119 49.9999H39.888C42.1031 49.9999 43.9064 48.1965 43.9064 45.9815V4.01839C43.8818 1.80342 42.0784 0 39.8798 0ZM14.2704 4.74304V8.18504H10.8284L14.2704 4.74304ZM41.1067 14.8798H35.9354C35.1697 14.8798 34.5438 15.4974 34.5438 16.2714C34.5438 17.0372 35.1614 17.663 35.9354 17.663H41.1067V20.1333H39.2128C38.447 20.1333 37.8211 20.7509 37.8211 21.5249C37.8211 22.2907 38.4388 22.9165 39.2128 22.9165H41.1067V45.9896C41.1067 46.6731 40.5551 47.2248 39.8798 47.2248H10.0873C9.41207 47.2248 8.8604 46.6731 8.8604 45.9979V10.9601H15.6621C16.4279 10.9601 17.0537 10.3426 17.0537 9.5685V2.76677H39.8798C40.5551 2.76677 41.1067 3.31845 41.1067 3.99368V14.8798Z" fill="#5DD9C2"/>
</svg>
