<svg width="50" height="56" viewBox="0 0 50 56" fill="none" xmlns="http://www.w3.org/2000/svg">
<path fill-rule="evenodd" clip-rule="evenodd" d="M50 18.3907C50 14.6428 48.7667 11.5774 46.7191 9.17614C47.0478 8.30601 48.1424 4.81327 46.4025 0.0875795C46.4025 0.0875795 43.7247 -0.834804 37.6274 3.60803C35.0793 2.8455 32.3472 2.46427 29.6333 2.45196C26.9193 2.46427 24.1873 2.8455 21.6422 3.60803C15.5418 -0.834804 12.8611 0.0875795 12.8611 0.0875795C11.1211 4.81327 12.2188 8.30601 12.5474 9.17614C10.5029 11.5774 9.26054 14.6428 9.26054 18.3907C9.26054 31.5501 16.7149 34.4956 23.8043 35.3626C23.8043 35.3626 18.7081 38.5817 18.7081 43.993C16.8897 44.8724 9.19419 47.5657 6.34454 42.3174C6.34454 42.3174 4.65886 39.0214 1.4534 38.7785C1.4534 38.7785 -1.66465 38.7354 1.23326 40.8661C1.23326 40.8661 3.32603 41.9238 4.77949 45.8901C4.77949 45.8901 6.39579 54.2469 18.6056 50.4928C18.7292 50.5573 18.6508 54.5359 18.6508 55.3506H40.6218C40.6218 55.3506 40.658 47.3659 40.658 44.8263C40.658 38.5817 36.5689 36.3957 35.42 35.3349C42.5336 34.4863 50 31.5839 50 18.3907Z" fill="#5DD9C2"/>
</svg>
