<svg width="50" height="57" viewBox="0 0 50 57" fill="none" xmlns="http://www.w3.org/2000/svg">
<path fill-rule="evenodd" clip-rule="evenodd" d="M12.4541 18.2175V56.2438H0.000937506V18.2175H12.4541ZM31.2264 18.1472V20.3879C33.0443 19.0892 35.1407 18.3342 38.3197 18.3342C48.6733 18.3342 50 27.2313 50 34.982V56.2428H37.4843V36.0418C37.4843 32.6443 36.386 32.0002 34.3554 32.0002C32.4248 32.0002 31.2264 32.679 31.2264 36.0418V56.2428H18.7107V18.1472H31.2264ZM6.22657 0.901367C9.66214 0.901367 12.4531 3.99403 12.4531 7.7932C12.4531 11.5924 9.66214 14.685 6.22655 14.685C2.79416 14.685 0 11.5924 0 7.79318C0 3.99406 2.79413 0.901367 6.22657 0.901367Z" fill="#5DD9C2"/>
</svg>
