<svg width="50" height="50" viewBox="0 0 50 50" fill="none" xmlns="http://www.w3.org/2000/svg">
<path d="M35.6875 29.6562C35.0938 29.375 32.25 27.9687 31.7188 27.75C31.1875 27.5312 30.8125 27.4687 30.4062 28.0625C30 28.6562 28.9063 29.9375 28.5625 30.3437C28.2188 30.75 27.9063 30.7812 27.3125 30.3437C25.6071 29.6594 24.0321 28.6869 22.6563 27.4687C21.4108 26.2961 20.3564 24.9359 19.5313 23.4375C19.1875 22.875 19.5313 22.5625 19.7813 22.25C20.0313 21.9375 20.3438 21.5937 20.6563 21.25C20.8848 20.9527 21.0739 20.6271 21.2188 20.2812C21.2963 20.1204 21.3365 19.9442 21.3365 19.7656C21.3365 19.5871 21.2963 19.4108 21.2188 19.25C21.2188 18.9687 19.9063 16.125 19.4063 14.9687C18.9063 13.8125 18.4688 13.9687 18.125 13.9687H16.875C16.2795 13.992 15.7176 14.2504 15.3125 14.6875C14.6586 15.3115 14.1407 16.0638 13.7911 16.8973C13.4416 17.7308 13.268 18.6275 13.2813 19.5312C13.4411 21.7499 14.2569 23.871 15.625 25.625C18.1355 29.3545 21.5702 32.3692 25.5938 34.375C26.9688 34.9687 28.0313 35.3125 28.875 35.5937C30.0598 35.9519 31.3122 36.0268 32.5312 35.8125C33.3409 35.6482 34.1082 35.3194 34.7855 34.8463C35.4629 34.3733 36.0358 33.7661 36.4688 33.0625C36.8291 32.1936 36.9479 31.2434 36.8125 30.3125C36.6562 30.0937 36.2813 29.9375 35.6875 29.6562Z" fill="#5DD9C2"/>
<path d="M41.5313 8.37494C39.3701 6.19333 36.7939 4.46658 33.9547 3.29655C31.1155 2.12651 28.0707 1.53689 25 1.56244C20.9322 1.58373 16.9411 2.67192 13.4254 4.71832C9.90978 6.76473 6.99255 9.69772 4.96512 13.2244C2.93769 16.751 1.87103 20.7479 1.87167 24.8158C1.8723 28.8837 2.94022 32.8802 4.96875 36.4062L1.84375 48.4374L14.1563 45.3124C17.5601 47.1646 21.3748 48.1318 25.25 48.1249H25C29.6185 48.155 34.1413 46.8089 37.9917 44.2582C41.8421 41.7075 44.8455 38.0679 46.619 33.8034C48.3926 29.5389 48.8558 24.8428 47.9496 20.3139C47.0435 15.7851 44.8091 11.6288 41.5313 8.37494ZM25 44.1249C21.533 44.1277 18.1304 43.1879 15.1562 41.4062L14.4688 40.9999L7.15625 42.9062L9.09375 35.7812L8.65625 35.0624C6.16049 31.0432 5.22691 26.2476 6.03265 21.5856C6.83839 16.9236 9.32739 12.7196 13.0274 9.77114C16.7274 6.8227 21.381 5.335 26.1052 5.59031C30.8294 5.84562 35.2956 7.82617 38.6563 11.1562C40.4579 12.9434 41.8859 15.0712 42.857 17.4158C43.8281 19.7604 44.3229 22.2747 44.3125 24.8124C44.3042 29.9319 42.2669 34.8393 38.6469 38.4593C35.0269 42.0793 30.1195 44.1167 25 44.1249Z" fill="#5DD9C2"/>
</svg>
