<svg width="104" height="104" viewBox="0 0 104 104" fill="none" xmlns="http://www.w3.org/2000/svg">
<g clip-path="url(#clip0_17_14)">
<path d="M52 0C38.3591 0 26.0171 1.38863 16.8252 3.73276C12.2292 4.90483 8.42496 6.28817 5.49081 8.05729C2.87386 9.63515 0.562395 11.7743 0.0920833 14.7333H0V15.6C0 16.4944 0.630805 17.8435 2.95208 19.5586C5.27336 21.2736 9.03403 23.0542 13.8132 24.5477C23.3715 27.5346 36.9761 29.4667 52 29.4667C67.0239 29.4667 80.6285 27.5346 90.1868 24.5477C94.966 23.0542 98.7266 21.2736 101.048 19.5586C103.369 17.8435 104 16.4944 104 15.6H103.978C103.86 12.1886 101.373 9.7843 98.5092 8.05729C95.575 6.28817 91.7708 4.90483 87.1748 3.73276C77.9829 1.38863 65.6409 0 52 0ZM0 25.9445V40.5786C0.122199 41.4648 0.807722 42.6928 2.89859 44.2376C5.21987 45.9526 8.98054 47.7332 13.7597 49.2267C23.318 52.2136 36.9226 54.1457 51.9465 54.1457C66.9704 54.1457 80.575 52.2136 90.1333 49.2267C94.9125 47.7332 98.6731 45.9526 100.994 44.2376C103.316 42.5225 103.947 41.1734 103.947 40.279H104V25.9445C100.868 28.0061 96.9156 29.709 92.255 31.1655C81.7384 34.4519 67.6094 36.4 52 36.4C36.3906 36.4 22.2616 34.4519 11.745 31.1655C7.08445 29.709 3.13164 28.0061 0 25.9445ZM104 50.5781C102.31 51.697 100.391 52.7158 98.2367 53.6413C96.3854 54.4364 94.3696 55.1669 92.2015 55.8445C81.6849 59.1309 67.5559 61.079 51.9465 61.079C36.3371 61.079 22.2081 59.1309 11.6915 55.8445C7.05829 54.3966 3.1229 52.7057 0 50.6604V65.8667C0 66.7611 0.6308 68.1102 2.95208 69.8252C5.27337 71.5403 9.03402 73.3208 13.8132 74.8143C23.3715 77.8013 36.9761 79.7333 52 79.7333C67.0239 79.7333 80.6285 77.8013 90.1868 74.8143C94.966 73.3208 98.7266 71.5403 101.048 69.8252C103.369 68.1102 104 66.7611 104 65.8667V50.5781ZM0 76.2111V88.1562V89.2667H0.0920833C0.562396 92.2257 2.87386 94.3648 5.49081 95.9427C8.42497 97.7118 12.2292 99.0952 16.8252 100.267C26.0171 102.611 38.3591 104 52 104C65.6409 104 77.9829 102.611 87.1748 100.267C91.7708 99.0952 95.575 97.7118 98.5092 95.9427C101.126 94.3648 103.438 92.2257 103.908 89.2667H104V88.1562V76.2111C100.868 78.2727 96.9156 79.9757 92.255 81.4321C81.7384 84.7186 67.6094 86.6667 52 86.6667C36.3906 86.6667 22.2616 84.7186 11.745 81.4321C7.08444 79.9757 3.13165 78.2727 0 76.2111Z" fill="#5DD9C2" fill-opacity="0.7"/>
</g>
<defs>
<clipPath id="clip0_17_14">
<rect width="104" height="104" fill="white"/>
</clipPath>
</defs>
</svg>
