<svg width="104" height="104" viewBox="0 0 104 104" fill="none" xmlns="http://www.w3.org/2000/svg">
<path d="M73.7945 3.55874H89.661V19.838H73.7945V3.55874ZM89.6643 27.9792V64.7692C89.8105 66.1895 89.8918 67.834 89.8918 69.5013C89.8918 76.466 88.4423 83.0895 85.8325 89.0922L85.956 88.7738C83.1253 94.094 78.6143 98.2085 73.1413 100.461L72.9723 100.522L58.2368 93.5155C63.6675 91.5882 68.0518 87.8378 70.7493 83.018L70.8078 82.901C73.0763 78.3672 73.7945 73.112 73.7945 59.306V27.976H89.661L89.6643 27.9792ZM48.5453 40.4462C47.0438 39.9197 45.3083 39.6175 43.5078 39.6175C43.3973 39.6175 43.2835 39.6175 43.173 39.6207H43.1893C42.9488 39.6045 42.666 39.5947 42.3833 39.5947C35.7663 39.5947 30.4005 44.9605 30.4005 51.5775C30.4005 52.1592 30.4428 52.7345 30.524 53.2935L30.5175 53.2285C30.4493 53.703 30.407 54.2522 30.407 54.8112C30.407 61.1942 35.581 66.3682 41.964 66.3682C42.3605 66.3682 42.7505 66.3487 43.1373 66.3097L43.0885 66.313C45.0158 66.313 46.9073 66.1635 48.7533 65.8742L48.5485 65.9002L48.5453 40.4462ZM48.5453 3.47424H64.4118V76.934C58.2335 78.2698 51.1225 79.0562 43.836 79.0985H43.8035C24.4303 79.0985 14.3325 70.3398 14.3325 53.5405C14.3065 53.105 14.2903 52.598 14.2903 52.0877C14.2903 38.1062 25.6263 26.7702 39.6078 26.7702C40.3228 26.7702 41.0313 26.7995 41.73 26.858L41.639 26.8515C41.7853 26.8482 41.9543 26.8482 42.1265 26.8482C44.408 26.8482 46.618 27.1505 48.7175 27.716L48.5388 27.677L48.5453 3.47424Z" fill="#5DD9C2" fill-opacity="0.7"/>
</svg>
