<svg width="104" height="104" viewBox="0 0 104 104" fill="none" xmlns="http://www.w3.org/2000/svg">
<path d="M56.2672 48.0642H47.138C47.138 55.9357 47.1022 63.7585 47.1022 71.6397C47.2095 72.709 47.268 73.9537 47.268 75.2115C47.268 77.844 47.0047 80.4147 46.501 82.8977L46.5432 82.6507C45.2042 85.449 41.7495 85.0915 40.183 84.6007C38.7172 83.8142 37.557 82.6215 36.8322 81.172L36.8127 81.1265C36.6697 80.821 36.4975 80.561 36.2927 80.327L36.296 80.3302L28.8827 84.8997C30.0755 87.4672 31.9182 89.5602 34.203 91.026L34.2615 91.0617C36.7412 92.4495 39.7052 93.2652 42.8577 93.2652C44.4307 93.2652 45.9582 93.0605 47.411 92.6802L47.2875 92.7095C50.4985 91.9035 53.1148 89.817 54.613 87.0415L54.6422 86.9797C55.809 84.0092 56.4817 80.5675 56.4817 76.9697C56.4817 75.7087 56.3973 74.4672 56.238 73.2485L56.2542 73.3915C56.303 65.0487 56.2542 56.7027 56.2542 48.295L56.2672 48.0642ZM92.7517 77.4897C92.04 73.0437 89.1442 69.3062 80.5545 65.8222C77.5645 64.4215 74.243 63.4465 73.255 61.191C73.0502 60.6775 72.9332 60.0827 72.9332 59.462C72.9332 59.059 72.982 58.669 73.0762 58.2952L73.0697 58.3277C73.7457 56.5402 75.4455 55.289 77.4345 55.289C78.0812 55.289 78.6955 55.419 79.2512 55.6562L79.222 55.6432C81.016 56.2607 82.433 57.5737 83.1707 59.2572L83.187 59.2995C87.386 56.5532 87.386 56.5532 90.3142 54.73C89.6122 53.5307 88.8225 52.4907 87.9287 51.5547L87.9352 51.5612C85.4425 48.9157 81.9162 47.2712 78.0032 47.2712C77.4475 47.2712 76.8982 47.3037 76.362 47.3687L76.427 47.3622L73.5637 47.723C70.7817 48.3535 68.406 49.7997 66.6315 51.792L66.6217 51.805C64.883 53.9662 63.83 56.7417 63.83 59.7642C63.83 63.921 65.8222 67.613 68.9 69.94L68.9325 69.9627C74.477 74.1065 82.5825 75.0165 83.6192 78.9165C84.5942 83.668 80.0865 85.1922 75.634 84.643C72.5237 83.9345 69.9757 81.9455 68.536 79.274L68.5067 79.2187L61.074 83.486C61.9482 85.228 63.0467 86.7165 64.3597 87.9872L64.363 87.9905C71.4285 95.121 89.0955 94.757 92.2675 83.9117C92.6347 82.7287 92.846 81.3702 92.846 79.963C92.846 78.988 92.7452 78.0357 92.5502 77.1192L92.5665 77.2102L92.7517 77.4897ZM3.263 3.263H100.734V100.734H3.263V3.263Z" fill="#5DD9C2" fill-opacity="0.7"/>
</svg>
