<svg width="104" height="104" viewBox="0 0 104 104" fill="none" xmlns="http://www.w3.org/2000/svg">
<path d="M62.439 85.9528L61.5062 87.2917L61.1813 88.9557L61.5062 90.6198L62.439 91.9588L63.778 92.8915L65.442 93.2165L67.106 92.8915L68.445 91.9588L69.3778 90.6198L69.7028 88.9557L69.3778 87.2917L68.445 85.9528L67.106 85.02L65.442 84.695L63.778 85.02L62.439 85.9528ZM88.7153 28.08L89.8528 28.3238L91.1528 28.8113L92.573 29.5425L94.0355 30.6378L95.498 32.058L96.9183 33.9658L98.2183 36.361L99.3558 39.325L100.207 42.9L100.776 47.125L100.978 52.1203L100.734 57.1155L100.084 61.3405L99.1088 64.8343L97.8087 67.717L96.3463 70.031L94.7213 71.8575L93.015 73.1965L91.3087 74.1715L89.6837 74.8215L88.2213 75.1855L86.9213 75.387L85.9463 75.4683L85.2963 75.4293H51.9122V78.7605H75.6308L75.6698 89.9698L75.751 91.4323L75.5495 92.8135L75.1042 94.0713L74.4153 95.2477L73.4012 96.2617L72.1435 97.2368L70.5997 98.0493L68.8123 98.7383L66.742 99.346L64.3858 99.8725L61.7858 100.236L58.903 100.519L55.7765 100.682L52.364 100.721L47.2062 100.558L42.861 99.9895L39.2047 99.177L36.2407 98.163L33.8455 96.9443L32.019 95.6052L30.6377 94.224L29.6237 92.8428L28.9737 91.5038L28.5675 90.285L28.405 89.271L28.3237 88.4585L28.3628 87.932V66.2448L28.5675 63.6448L29.094 61.451L29.9455 59.5823L31.0017 58.0385L32.2205 56.7385L33.5595 55.7635L34.9797 54.951L36.4 54.3823L37.739 53.976L38.9577 53.7323L40.014 53.5698L40.8655 53.4885L41.392 53.4495H65.1105L67.912 53.248L70.3073 52.6792L72.3385 51.8278L74.0025 50.6903L75.3415 49.3903L76.4367 47.97L77.2492 46.5075L77.857 45.045L78.2633 43.6248L78.546 42.3247L78.7085 41.1873L78.7897 40.3358V27.9078H87.2787L87.8475 27.9468L88.7153 28.08ZM35.5518 12.038L34.619 13.377L34.294 15.041L34.619 16.705L35.5518 18.0863L36.8907 18.98L38.5547 19.344L40.2188 18.9768L41.5577 18.083L42.4905 16.7018L42.8155 15.0378L42.4905 13.3737L41.5577 12.0348L40.2188 11.141L38.5547 10.777L36.8907 11.141L35.5518 12.038ZM61.139 3.99425L64.7953 4.80675L67.7593 5.863L70.1545 7.08175L71.981 8.38175L73.3623 9.763L74.3763 11.1443L75.0262 12.4833L75.4325 13.702L75.595 14.7583L75.6763 15.5708L75.6373 16.0973V37.7845L75.4358 40.3423L74.9092 42.575L74.0578 44.4438L73.0015 45.9875L71.7828 47.2453L70.4437 48.2593L69.0235 49.0295L67.6033 49.5983L66.2643 50.0045L65.0455 50.2873L63.9893 50.4497L63.1345 50.531H38.8895L36.088 50.7325L33.6927 51.3013L31.6615 52.195L29.9975 53.2902L28.6585 54.5903L27.5632 56.0105L26.7507 57.473L26.143 58.9745L25.7367 60.3948L25.454 61.6948L25.2915 62.79L25.2102 63.6415V76.0695H16.1525L15.301 75.9492L14.1635 75.6665L12.8635 75.179L11.4432 74.4478L9.98075 73.3915L8.51825 71.929L7.098 70.0602L5.798 67.665L4.6605 64.701L3.809 61.126L3.24025 56.862L3.03875 51.8667L3.2825 46.9138L3.9325 42.6888L4.9075 39.156L6.2075 36.2733L7.67 33.9593L9.295 32.1718L11.0013 30.8328L12.7075 29.8578L14.3325 29.2078L15.795 28.8015L17.095 28.6L18.07 28.561H18.72L18.9638 28.6H52.104V25.2297H28.3855L28.3465 14.0628L28.2652 12.5613L28.4667 11.18L28.912 9.92225L29.601 8.78475L30.615 7.7285L31.8727 6.79575L33.4165 5.98325L35.204 5.252L37.2742 4.64425L39.6305 4.15675L42.2305 3.7505L45.1132 3.50675L48.2398 3.34425L51.6522 3.263L56.81 3.46775L61.139 3.99425Z" fill="#5DD9C2" fill-opacity="0.7"/>
</svg>
