<svg width="104" height="104" viewBox="0 0 104 104" fill="none" xmlns="http://www.w3.org/2000/svg">
<g clip-path="url(#clip0_17_22)">
<path d="M52 0C80.6 0 104 23.4 104 52C104 80.6 80.6 104 52 104C23.4 104 0 80.6 0 52C0 23.4 23.4 0 52 0ZM41.6 69.225C42.25 72.15 42.25 74.75 41.6 77.025L41.275 78C41.275 78.325 40.95 78.65 40.95 78.65C40.3 79.95 39.65 80.925 38.675 82.225C35.75 85.475 31.525 86.775 29.575 85.8C27.625 84.825 28.6 79.95 32.175 76.375C36.075 72.475 41.275 69.875 41.275 69.875L41.6 69.225ZM84.5 22.1C82.225 13 66.95 9.75 52.325 14.95C43.875 18.2 34.45 23.075 27.625 29.25C19.5 36.725 18.525 43.225 18.85 45.825C20.8 55.25 33.8 61.75 39.325 66.3C37.7 66.95 26 72.8 23.4 78.975C20.475 85.475 23.725 90.025 26 90.35C32.825 92.3 39.975 88.725 43.55 83.2C47.125 77.675 46.8 70.85 45.175 67.275C47.45 66.625 49.725 66.3 52.975 66.95C62.075 67.925 64.025 73.775 63.375 76.05C62.725 78.325 61.1 79.625 60.45 80.275C59.8 80.6 59.475 80.925 59.8 80.925C59.8 81.25 60.125 81.25 60.775 81.25C61.425 81.25 65.65 79.3 65.65 74.75C65.975 69.225 60.45 63.05 51.025 63.05C47.125 63.05 44.525 63.375 42.9 64.025C42.9 63.7 42.575 63.7 42.575 63.7C36.725 57.525 26 52.975 26.325 44.525C26.325 41.6 27.625 33.475 47.125 23.725C63.05 15.6 76.05 17.875 78.325 22.75C81.575 29.575 71.5 42.575 54.925 44.525C48.425 45.175 45.175 42.9 44.525 41.925C43.55 40.95 43.55 40.95 43.225 40.95C42.575 41.275 42.9 41.925 43.225 42.575C43.875 43.875 45.825 46.15 49.4 47.45C52.325 48.425 59.8 49.075 68.9 45.5C78.975 41.6 86.775 30.875 84.5 21.775V22.1Z" fill="#5DD9C2" fill-opacity="0.7"/>
</g>
<defs>
<clipPath id="clip0_17_22">
<rect width="104" height="104" fill="white"/>
</clipPath>
</defs>
</svg>
