<svg width="104" height="104" viewBox="0 0 104 104" fill="none" xmlns="http://www.w3.org/2000/svg">
<g clip-path="url(#clip0_17_10)">
<path d="M0 52V104H104V0H0V52ZM83.8045 47.853C86.4467 48.5127 88.4585 49.699 90.3208 51.61C91.2698 52.624 92.69 54.4863 92.8102 54.9445C92.8428 55.081 88.3252 58.11 85.5823 59.8032C85.4815 59.8715 85.0752 59.449 84.6333 58.786C83.2975 56.8392 81.8903 55.9942 79.742 55.8415C76.5928 55.6367 74.5615 57.2813 74.5778 60.0405C74.5615 60.7165 74.7142 61.3957 75.0165 61.9873C75.712 63.427 77.0153 64.2883 81.042 66.0335C88.491 69.2315 91.6728 71.3473 93.652 74.3438C95.8685 77.6945 96.3593 83.044 94.8708 87.0383C93.2132 91.3542 89.115 94.2988 83.3593 95.264C81.5815 95.5858 77.35 95.5337 75.4358 95.1795C71.2562 94.4352 67.2945 92.3682 64.857 89.661C63.8917 88.6112 62.0295 85.852 62.1497 85.6667C62.2017 85.5985 62.6243 85.3288 63.0988 85.0557C63.5733 84.7827 65.3153 83.7688 66.9598 82.8197L69.9562 81.0778L70.5835 82.0072C71.4642 83.343 73.3752 85.1727 74.529 85.7805C77.8472 87.542 82.4005 87.2885 84.6528 85.2735C85.566 84.513 86.0763 83.343 86.008 82.16C86.008 80.9575 85.8553 80.418 85.228 79.5177C84.4155 78.3672 82.7742 77.3857 78.0845 75.3545C72.7188 73.034 70.3983 71.6138 68.302 69.329C66.9825 67.821 66.001 66.0465 65.442 64.1322C65.052 62.66 64.9512 58.968 65.2568 57.4958C66.3585 52.299 70.2845 48.6947 75.92 47.6287C77.7498 47.2745 82.0138 47.4077 83.8078 47.8497L83.8045 47.853ZM59.397 52.2048L59.4295 56.4525H45.8868V94.9292H36.3057V56.4525H22.7825V52.2893C22.7825 49.9688 22.8345 48.0415 22.8995 47.9895C22.9515 47.9212 31.1773 47.8887 41.1645 47.905L59.345 47.957L59.397 52.2048Z" fill="#5DD9C2" fill-opacity="0.7"/>
</g>
<defs>
<clipPath id="clip0_17_10">
<rect width="104" height="104" fill="white"/>
</clipPath>
</defs>
</svg>
